<?xml version="1.0" encoding="UTF-8" standalone="no"?>
<!DOCTYPE svg PUBLIC "-//W3C//DTD SVG 1.1//EN"
 "http://www.w3.org/Graphics/SVG/1.1/DTD/svg11.dtd">
<!-- Generated by graphviz version 2.38.0 (20140413.2041)
 -->
<!-- Title: G Pages: 1 -->
<svg width="340pt" height="570pt"
 viewBox="0.00 0.00 339.77 570.00" xmlns="http://www.w3.org/2000/svg" xmlns:xlink="http://www.w3.org/1999/xlink">
<g id="graph0" class="graph" transform="scale(1 1) rotate(0) translate(4 566)">
<title>G</title>
<polygon fill="white" stroke="none" points="-4,4 -4,-566 335.767,-566 335.767,4 -4,4"/>
<g id="clust1" class="cluster"><title>cluster_1</title>
<polygon fill="none" stroke="black" points="71,-329 71,-554 249,-554 249,-329 71,-329"/>
</g>
<g id="clust2" class="cluster"><title>cluster_2</title>
<polygon fill="none" stroke="black" points="8,-8 8,-309 172,-309 172,-8 8,-8"/>
</g>
<g id="clust3" class="cluster"><title>cluster_3</title>
<polygon fill="none" stroke="black" points="180,-84 180,-309 314,-309 314,-84 180,-84"/>
</g>
<!-- nodeA1 -->
<g id="node1" class="node"><title>nodeA1</title>
<polygon fill="none" stroke="black" points="97.5,-488.5 97.5,-545.5 222.5,-545.5 222.5,-488.5 97.5,-488.5"/>
<text text-anchor="middle" x="160" y="-533.5" font-family="Georgia" font-size="10.00">ProcessNode</text>
<polyline fill="none" stroke="black" points="97.5,-526.5 222.5,-526.5 "/>
<text text-anchor="middle" x="160" y="-514.5" font-family="Georgia" font-size="10.00">ProcessNodeSequence</text>
<polyline fill="none" stroke="black" points="97.5,-507.5 222.5,-507.5 "/>
<text text-anchor="middle" x="160" y="-495.5" font-family="Georgia" font-size="10.00">BatchStopApp</text>
</g>
<!-- nodeA2 -->
<g id="node2" class="node"><title>nodeA2</title>
<polygon fill="none" stroke="black" points="79.5,-337.5 79.5,-451.5 240.5,-451.5 240.5,-337.5 79.5,-337.5"/>
<text text-anchor="middle" x="160" y="-439.5" font-family="Georgia" font-size="10.00">LoadAccSubsOweDefine</text>
<polyline fill="none" stroke="black" points="79.5,-432.5 240.5,-432.5 "/>
<text text-anchor="middle" x="160" y="-420.5" font-family="Georgia" font-size="10.00">LoadAccBatchstopUmsDefine</text>
<polyline fill="none" stroke="black" points="79.5,-413.5 240.5,-413.5 "/>
<text text-anchor="middle" x="160" y="-401.5" font-family="Georgia" font-size="10.00">LoadVipCrtApplyCredit</text>
<polyline fill="none" stroke="black" points="79.5,-394.5 240.5,-394.5 "/>
<text text-anchor="middle" x="160" y="-382.5" font-family="Georgia" font-size="10.00">LoadVipDelayAccount</text>
<polyline fill="none" stroke="black" points="79.5,-375.5 240.5,-375.5 "/>
<text text-anchor="middle" x="160" y="-363.5" font-family="Georgia" font-size="10.00">LoadPhase1</text>
<polyline fill="none" stroke="black" points="79.5,-356.5 240.5,-356.5 "/>
<text text-anchor="middle" x="160" y="-344.5" font-family="Georgia" font-size="10.00">BatchStopManager</text>
</g>
<!-- nodeA1&#45;&gt;nodeA2 -->
<g id="edge1" class="edge"><title>nodeA1:f0&#45;&gt;nodeA2</title>
<path fill="none" stroke="black" d="M160,-547C160,-560.891 212.757,-555.9 222.5,-546 245.529,-522.6 234.837,-489.489 216.264,-460.28"/>
<polygon fill="black" stroke="black" points="219.03,-458.12 210.558,-451.757 213.213,-462.014 219.03,-458.12"/>
</g>
<!-- nodeB1 -->
<g id="node3" class="node"><title>nodeB1</title>
<polygon fill="none" stroke="black" points="35,-243.5 35,-300.5 151,-300.5 151,-243.5 35,-243.5"/>
<text text-anchor="middle" x="93" y="-288.5" font-family="Georgia" font-size="10.00">ProcessNode</text>
<polyline fill="none" stroke="black" points="35,-281.5 151,-281.5 "/>
<text text-anchor="middle" x="93" y="-269.5" font-family="Georgia" font-size="10.00">ProcessNodeParallel</text>
<polyline fill="none" stroke="black" points="35,-262.5 151,-262.5 "/>
<text text-anchor="middle" x="93" y="-250.5" font-family="Georgia" font-size="10.00">LoadPhase1</text>
</g>
<!-- nodeA2&#45;&gt;nodeB1 -->
<g id="edge4" class="edge"><title>nodeA2:f4&#45;&gt;nodeB1:f2</title>
<path fill="none" stroke="black" d="M78,-365.5C65.3255,-365.5 72.1486,-347.663 79,-337 98.3399,-306.901 131.875,-331.236 151,-301 160,-286.771 168.705,-265.111 161.494,-256.607"/>
<polygon fill="black" stroke="black" points="162.591,-253.28 152,-253 160.105,-259.823 162.591,-253.28"/>
</g>
<!-- nodeC1 -->
<g id="node5" class="node"><title>nodeC1</title>
<polygon fill="none" stroke="black" points="188,-243.5 188,-300.5 304,-300.5 304,-243.5 188,-243.5"/>
<text text-anchor="middle" x="246" y="-288.5" font-family="Georgia" font-size="10.00">ProcessNode</text>
<polyline fill="none" stroke="black" points="188,-281.5 304,-281.5 "/>
<text text-anchor="middle" x="246" y="-269.5" font-family="Georgia" font-size="10.00">ProcessNodeParallel</text>
<polyline fill="none" stroke="black" points="188,-262.5 304,-262.5 "/>
<text text-anchor="middle" x="246" y="-250.5" font-family="Georgia" font-size="10.00">BatchStopManager</text>
</g>
<!-- nodeA2&#45;&gt;nodeC1 -->
<g id="edge5" class="edge"><title>nodeA2:f5&#45;&gt;nodeC1:f2</title>
<path fill="none" stroke="black" d="M242,-346.5C246.246,-346.5 243.181,-340.643 241,-337 226.372,-312.569 201.589,-326.024 188,-301 184.42,-294.408 180.105,-273.355 181.568,-261.437"/>
<polygon fill="black" stroke="black" points="184.529,-263.303 187,-253 178.644,-259.513 184.529,-263.303"/>
</g>
<!-- nodeB2 -->
<g id="node4" class="node"><title>nodeB2</title>
<polygon fill="none" stroke="black" points="15.5,-16.5 15.5,-206.5 164.5,-206.5 164.5,-16.5 15.5,-16.5"/>
<text text-anchor="middle" x="90" y="-194.5" font-family="Georgia" font-size="10.00">LoadUcsAccount</text>
<polyline fill="none" stroke="black" points="15.5,-187.5 164.5,-187.5 "/>
<text text-anchor="middle" x="90" y="-175.5" font-family="Georgia" font-size="10.00">LoadUcsSubscription</text>
<polyline fill="none" stroke="black" points="15.5,-168.5 164.5,-168.5 "/>
<text text-anchor="middle" x="90" y="-156.5" font-family="Georgia" font-size="10.00">LoadUcsGroupMember</text>
<polyline fill="none" stroke="black" points="15.5,-149.5 164.5,-149.5 "/>
<text text-anchor="middle" x="90" y="-137.5" font-family="Georgia" font-size="10.00">LoadUcsSubsRela</text>
<polyline fill="none" stroke="black" points="15.5,-130.5 164.5,-130.5 "/>
<text text-anchor="middle" x="90" y="-118.5" font-family="Georgia" font-size="10.00">LoadUcsSubsAttr</text>
<polyline fill="none" stroke="black" points="15.5,-111.5 164.5,-111.5 "/>
<text text-anchor="middle" x="90" y="-99.5" font-family="Georgia" font-size="10.00">LoadUcsSubsOtherInfo</text>
<polyline fill="none" stroke="black" points="15.5,-92.5 164.5,-92.5 "/>
<text text-anchor="middle" x="90" y="-80.5" font-family="Georgia" font-size="10.00">LoadInfoOweIdentifie</text>
<polyline fill="none" stroke="black" points="15.5,-73.5 164.5,-73.5 "/>
<text text-anchor="middle" x="90" y="-61.5" font-family="Georgia" font-size="10.00">LoadGrpCreditRule2Billing</text>
<polyline fill="none" stroke="black" points="15.5,-54.5 164.5,-54.5 "/>
<text text-anchor="middle" x="90" y="-42.5" font-family="Georgia" font-size="10.00">LoadBmsGuaranty</text>
<polyline fill="none" stroke="black" points="15.5,-35.5 164.5,-35.5 "/>
<text text-anchor="middle" x="90" y="-23.5" font-family="Georgia" font-size="10.00">LoadWOFamilyA</text>
</g>
<!-- nodeB1&#45;&gt;nodeB2 -->
<g id="edge2" class="edge"><title>nodeB1:f0&#45;&gt;nodeB2</title>
<path fill="none" stroke="black" d="M34,-291C-3.21556,-291 4.10282,-255.239 23.5447,-215.73"/>
<polygon fill="black" stroke="black" points="26.7174,-217.213 28.1499,-206.716 20.4837,-214.029 26.7174,-217.213"/>
</g>
<!-- nodeC2 -->
<g id="node6" class="node"><title>nodeC2</title>
<polygon fill="none" stroke="black" points="188.5,-92.5 188.5,-130.5 305.5,-130.5 305.5,-92.5 188.5,-92.5"/>
<text text-anchor="middle" x="247" y="-118.5" font-family="Georgia" font-size="10.00">LoadAccAccountInfo</text>
<polyline fill="none" stroke="black" points="188.5,-111.5 305.5,-111.5 "/>
<text text-anchor="middle" x="247" y="-99.5" font-family="Georgia" font-size="10.00">for DealBatchStop</text>
</g>
<!-- nodeC1&#45;&gt;nodeC2 -->
<g id="edge3" class="edge"><title>nodeC1:f0&#45;&gt;nodeC2</title>
<path fill="none" stroke="black" d="M305,-291C368.168,-291 302.406,-188.639 266.758,-138.946"/>
<polygon fill="black" stroke="black" points="269.405,-136.634 260.698,-130.598 263.741,-140.746 269.405,-136.634"/>
</g>
</g>
</svg>
